<svg width="3995" height="975" viewBox="0 0 3995 975" fill="none" xmlns="http://www.w3.org/2000/svg">
<path d="M0.5 943.5V291.509C0.5 280.643 6.18911 270.57 15.4948 264.96L227.059 137.416C369.141 51.7613 545.007 44.1573 693.951 117.229L786.485 162.626C928.84 232.466 1096.25 228.787 1235.4 152.761L1291.14 122.307C1431.38 45.6874 1600.24 42.5832 1743.2 113.997L1844.2 164.449C1979.95 232.261 2141.53 222.667 2268.3 139.27C2398.75 53.4533 2565.71 45.9603 2703.32 119.748L2753.75 146.787C2901.43 225.971 3079.4 223.85 3225.15 141.17L3241.96 131.634C3386.55 49.6065 3562.96 46.8312 3710.07 124.27L3977.94 265.283C3988.12 270.644 3994.5 281.205 3994.5 292.714V943.5C3994.5 960.621 3980.62 974.5 3963.5 974.5H31.5C14.3792 974.5 0.5 960.621 0.5 943.5Z" fill="url(#paint0_linear_694_1240)"/>
<circle cx="340" cy="282.5" r="48" fill="#1176AF" fill-opacity="0.5"/>
<circle cx="719" cy="679.5" r="35" fill="#1176AF" fill-opacity="0.5"/>
<circle cx="996" cy="472.5" r="35" fill="#1176AF" fill-opacity="0.5"/>
<circle cx="1706" cy="703.5" r="59" fill="#1176AF" fill-opacity="0.5"/>
<circle cx="1499" cy="201.5" r="33" fill="#1176AF" fill-opacity="0.5"/>
<circle cx="2141" cy="404.5" r="33" fill="#1176AF" fill-opacity="0.5"/>
<circle cx="2472" cy="829.5" r="37" fill="#1176AF" fill-opacity="0.5"/>
<circle cx="2924" cy="544.5" r="37" fill="#1176AF" fill-opacity="0.5"/>
<circle cx="3376" cy="259.5" r="37" fill="#1176AF" fill-opacity="0.5"/>
<circle cx="3780" cy="487.5" r="37" fill="#1176AF" fill-opacity="0.5"/>
<defs>
<linearGradient id="paint0_linear_694_1240" x1="2082.5" y1="123" x2="2082.5" y2="974.5" gradientUnits="userSpaceOnUse">
<stop stop-color="#44B3F1"/>
<stop offset="1" stop-color="#3599D0"/>
</linearGradient>
</defs>
</svg>
