<svg width="2584" height="1535" viewBox="0 0 2584 1535" fill="none" xmlns="http://www.w3.org/2000/svg">
<path d="M614.303 1.29158L613.513 1.45392L613.225 2.20659L613.062 1.41697L612.31 1.12828L613.099 0.965936L613.388 0.213269L613.55 1.00289L614.303 1.29158Z" fill="white"/>
<path d="M709.056 177.233L708.266 177.395L707.977 178.148L707.815 177.358L707.062 177.07L707.852 176.907L708.141 176.155L708.303 176.944L709.056 177.233Z" fill="white"/>
<path d="M579.655 141.171L578.865 141.333L578.576 142.086L578.414 141.296L577.661 141.007L578.451 140.845L578.74 140.092L578.902 140.882L579.655 141.171Z" fill="white"/>
<path d="M666.629 79.6524L665.839 79.8148L665.55 80.5674L665.388 79.7778L664.635 79.4891L665.425 79.3268L665.714 78.5741L665.876 79.3637L666.629 79.6524Z" fill="white"/>
<path d="M610.06 58.439L609.271 58.6014L608.982 59.3541L608.82 58.5644L608.067 58.2757L608.857 58.1134L609.145 57.3607L609.308 58.1503L610.06 58.439Z" fill="white"/>
<path d="M811.586 349.06L810.796 349.222L810.508 349.975L810.345 349.186L809.593 348.897L810.382 348.734L810.671 347.982L810.833 348.771L811.586 349.06Z" fill="white"/>
<path d="M761.381 151.777L760.592 151.94L760.303 152.692L760.141 151.903L759.388 151.614L760.178 151.452L760.466 150.699L760.629 151.488L761.381 151.777Z" fill="white"/>
<path d="M1020.18 492.603L1019.39 492.765L1019.1 493.518L1018.94 492.728L1018.19 492.439L1018.98 492.277L1019.27 491.524L1019.43 492.314L1020.18 492.603Z" fill="white"/>
<path d="M740.168 444.519L739.378 444.682L739.09 445.434L738.927 444.645L738.175 444.356L738.964 444.194L739.253 443.441L739.415 444.231L740.168 444.519Z" fill="white"/>
<path d="M659.558 252.186L658.768 252.349L658.48 253.101L658.317 252.312L657.565 252.023L658.354 251.861L658.643 251.108L658.805 251.898L659.558 252.186Z" fill="white"/>
<path d="M544.3 356.131L543.51 356.294L543.221 357.046L543.059 356.257L542.306 355.968L543.096 355.806L543.385 355.053L543.547 355.842L544.3 356.131Z" fill="white"/>
<path d="M977.049 769.081L976.259 769.244L975.97 769.996L975.808 769.207L975.055 768.918L975.845 768.756L976.134 768.003L976.296 768.793L977.049 769.081Z" fill="white"/>
<path d="M1252.82 766.253L1252.03 766.415L1251.74 767.168L1251.58 766.378L1250.83 766.09L1251.62 765.927L1251.91 765.175L1252.07 765.964L1252.82 766.253Z" fill="white"/>
<path d="M1322.82 1085.16L1322.03 1085.32L1321.75 1086.07L1321.58 1085.28L1320.83 1084.99L1321.62 1084.83L1321.91 1084.08L1322.07 1084.87L1322.82 1085.16Z" fill="white"/>
<path d="M1011.7 1218.09L1010.91 1218.26L1010.62 1219.01L1010.46 1218.22L1009.7 1217.93L1010.49 1217.77L1010.78 1217.02L1010.94 1217.81L1011.7 1218.09Z" fill="white"/>
<path d="M961.493 1450.73L960.703 1450.89L960.414 1451.65L960.252 1450.86L959.499 1450.57L960.289 1450.41L960.578 1449.65L960.74 1450.44L961.493 1450.73Z" fill="white"/>
<path d="M718.248 1256.99L717.458 1257.15L717.17 1257.9L717.007 1257.11L716.255 1256.82L717.044 1256.66L717.333 1255.91L717.495 1256.7L718.248 1256.99Z" fill="white"/>
<path d="M493.388 978.385L492.598 978.547L492.309 979.3L492.147 978.51L491.394 978.222L492.184 978.059L492.473 977.307L492.635 978.096L493.388 978.385Z" fill="white"/>
<path d="M885.832 834.842L885.042 835.005L884.754 835.757L884.591 834.968L883.839 834.679L884.628 834.517L884.917 833.764L885.079 834.554L885.832 834.842Z" fill="white"/>
<path d="M749.36 586.648L748.571 586.81L748.282 587.563L748.12 586.773L747.367 586.485L748.157 586.322L748.445 585.57L748.608 586.359L749.36 586.648Z" fill="white"/>
<path d="M334.289 706.149L333.499 706.311L333.211 707.064L333.048 706.274L332.296 705.986L333.085 705.823L333.374 705.071L333.536 705.86L334.289 706.149Z" fill="white"/>
<path d="M243.072 453.712L242.283 453.874L241.994 454.627L241.832 453.837L241.079 453.548L241.868 453.386L242.157 452.633L242.319 453.423L243.072 453.712Z" fill="white"/>
<path d="M490.559 210.467L489.77 210.629L489.481 211.382L489.319 210.593L488.566 210.304L489.356 210.141L489.644 209.389L489.807 210.178L490.559 210.467Z" fill="white"/>
<path d="M694.913 461.49L694.124 461.652L693.835 462.405L693.673 461.615L692.92 461.327L693.71 461.164L693.998 460.412L694.161 461.201L694.913 461.49Z" fill="white"/>
<path d="M1093.72 864.541L1092.93 864.703L1092.64 865.456L1092.48 864.666L1091.73 864.378L1092.52 864.215L1092.81 863.463L1092.97 864.252L1093.72 864.541Z" fill="white"/>
<path d="M850.477 953.636L849.687 953.799L849.399 954.551L849.236 953.762L848.484 953.473L849.273 953.311L849.562 952.558L849.724 953.348L850.477 953.636Z" fill="white"/>
<path d="M669.457 946.565L668.668 946.728L668.379 947.48L668.217 946.691L667.464 946.402L668.254 946.24L668.542 945.487L668.705 946.277L669.457 946.565Z" fill="white"/>
<path d="M735.925 619.882L735.136 620.044L734.847 620.797L734.685 620.007L733.932 619.719L734.721 619.556L735.01 618.804L735.173 619.593L735.925 619.882Z" fill="white"/>
<path d="M1017.35 645.338L1016.56 645.5L1016.28 646.253L1016.11 645.463L1015.36 645.174L1016.15 645.012L1016.44 644.259L1016.6 645.049L1017.35 645.338Z" fill="white"/>
<path d="M197.11 553.414L196.321 553.576L196.032 554.329L195.87 553.539L195.117 553.251L195.907 553.088L196.195 552.336L196.358 553.125L197.11 553.414Z" fill="white"/>
<path d="M393.686 322.897L392.896 323.059L392.608 323.812L392.445 323.022L391.693 322.734L392.482 322.571L392.771 321.819L392.933 322.608L393.686 322.897Z" fill="white"/>
<path d="M791.08 704.735L790.29 704.897L790.002 705.65L789.839 704.86L789.087 704.571L789.876 704.409L790.165 703.656L790.327 704.446L791.08 704.735Z" fill="white"/>
<path d="M646.83 1161.53L646.04 1161.69L645.752 1162.44L645.589 1161.65L644.837 1161.36L645.626 1161.2L645.915 1160.45L646.077 1161.24L646.83 1161.53Z" fill="white"/>
<path d="M317.318 956.465L316.529 956.627L316.24 957.38L316.078 956.59L315.325 956.301L316.115 956.139L316.403 955.386L316.566 956.176L317.318 956.465Z" fill="white"/>
<path d="M576.12 693.421L575.33 693.583L575.041 694.336L574.879 693.546L574.126 693.258L574.916 693.095L575.205 692.343L575.367 693.132L576.12 693.421Z" fill="white"/>
<path d="M1445.15 921.816L1444.36 921.979L1444.08 922.731L1443.91 921.942L1443.16 921.653L1443.95 921.491L1444.24 920.738L1444.4 921.528L1445.15 921.816Z" fill="white"/>
<path d="M1534.96 952.222L1534.17 952.384L1533.88 953.137L1533.72 952.347L1532.96 952.059L1533.75 951.896L1534.04 951.144L1534.2 951.933L1534.96 952.222Z" fill="white"/>
<path d="M984.12 1518.61L983.33 1518.78L983.042 1519.53L982.879 1518.74L982.127 1518.45L982.916 1518.29L983.205 1517.54L983.367 1518.33L984.12 1518.61Z" fill="white"/>
<path d="M752.896 1458.51L752.106 1458.67L751.818 1459.43L751.655 1458.64L750.903 1458.35L751.692 1458.18L751.981 1457.43L752.143 1458.22L752.896 1458.51Z" fill="white"/>
<path d="M962.2 1058.29L961.41 1058.45L961.121 1059.2L960.959 1058.41L960.206 1058.12L960.996 1057.96L961.285 1057.21L961.447 1058L962.2 1058.29Z" fill="white"/>
<path d="M602.907 817.454L601.328 817.779L600.751 819.284L600.426 817.705L598.921 817.128L600.5 816.803L601.077 815.298L601.402 816.877L602.907 817.454Z" fill="white"/>
<path d="M548.125 522.255L546.546 522.579L545.968 524.085L545.643 522.506L544.138 521.928L545.717 521.604L546.295 520.098L546.619 521.677L548.125 522.255Z" fill="white"/>
<path d="M1174.62 741.458L1173.04 741.783L1172.46 743.288L1172.14 741.709L1170.63 741.131L1172.21 740.807L1172.79 739.301L1173.12 740.881L1174.62 741.458Z" fill="white"/>
<path d="M1098.96 487.607L1097.38 487.931L1096.8 489.437L1096.48 487.857L1094.97 487.28L1096.55 486.955L1097.13 485.45L1097.46 487.029L1098.96 487.607Z" fill="white"/>
<path d="M942.69 335.579L941.111 335.903L940.534 337.409L940.209 335.83L938.704 335.252L940.283 334.927L940.86 333.422L941.185 335.001L942.69 335.579Z" fill="white"/>
<path d="M1409.38 757.014L1407.8 757.339L1407.22 758.844L1406.9 757.265L1405.39 756.688L1406.97 756.363L1407.55 754.858L1407.88 756.437L1409.38 757.014Z" fill="white"/>
<path d="M830.967 1049.76L829.388 1050.08L828.81 1051.59L828.486 1050.01L826.98 1049.43L828.56 1049.11L829.137 1047.6L829.462 1049.18L830.967 1049.76Z" fill="white"/>
<path d="M354.377 539.225L352.798 539.55L352.221 541.056L351.896 539.476L350.391 538.899L351.97 538.574L352.547 537.069L352.872 538.648L354.377 539.225Z" fill="white"/>
<path d="M107.597 739.337L106.018 739.661L105.44 741.167L105.116 739.587L103.61 739.01L105.19 738.685L105.767 737.18L106.092 738.759L107.597 739.337Z" fill="white"/>
<path d="M294.98 396.39L293.401 396.714L292.824 398.22L292.499 396.641L290.994 396.063L292.573 395.739L293.15 394.233L293.475 395.812L294.98 396.39Z" fill="white"/>
<path d="M65.8777 609.936L64.2985 610.261L63.7211 611.766L63.3964 610.187L61.8911 609.61L63.4703 609.285L64.0477 607.78L64.3724 609.359L65.8777 609.936Z" fill="white"/>
<path d="M425.088 196.986L423.509 197.31L422.932 198.816L422.607 197.237L421.102 196.659L422.681 196.334L423.258 194.829L423.583 196.408L425.088 196.986Z" fill="white"/>
<path d="M853.172 314.353L852.728 315.026L853.056 315.763L852.383 315.319L851.647 315.647L852.09 314.974L851.762 314.238L852.436 314.681L853.172 314.353Z" fill="white"/>
<path d="M1044.58 371.762L1044.14 372.436L1044.47 373.172L1043.79 372.728L1043.06 373.056L1043.5 372.383L1043.17 371.647L1043.85 372.091L1044.58 371.762Z" fill="white"/>
<path d="M927.582 437.762L927.138 438.436L927.466 439.172L926.793 438.728L926.057 439.056L926.5 438.383L926.172 437.647L926.845 438.091L927.582 437.762Z" fill="white"/>
<path d="M945.582 332.762L945.138 333.436L945.466 334.172L944.793 333.728L944.057 334.056L944.5 333.383L944.172 332.647L944.845 333.091L945.582 332.762Z" fill="white"/>
<path d="M890.582 357.762L890.138 358.436L890.466 359.172L889.793 358.728L889.057 359.056L889.5 358.383L889.172 357.647L889.845 358.091L890.582 357.762Z" fill="white"/>
<path d="M1238.58 420.762L1238.14 421.436L1238.47 422.172L1237.79 421.728L1237.06 422.056L1237.5 421.383L1237.17 420.647L1237.85 421.091L1238.58 420.762Z" fill="white"/>
<path d="M1063.58 316.762L1063.14 317.436L1063.47 318.172L1062.79 317.728L1062.06 318.056L1062.5 317.383L1062.17 316.647L1062.85 317.091L1063.58 316.762Z" fill="white"/>
<path d="M1487.58 374.762L1487.14 375.436L1487.47 376.172L1486.79 375.728L1486.06 376.056L1486.5 375.383L1486.17 374.647L1486.85 375.091L1487.58 374.762Z" fill="white"/>
<path d="M1255.58 538.762L1255.14 539.436L1255.47 540.172L1254.79 539.728L1254.06 540.056L1254.5 539.383L1254.17 538.647L1254.85 539.091L1255.58 538.762Z" fill="white"/>
<path d="M1062.58 459.762L1062.14 460.436L1062.47 461.172L1061.79 460.728L1061.06 461.056L1061.5 460.383L1061.17 459.647L1061.85 460.091L1062.58 459.762Z" fill="white"/>
<path d="M1054.58 614.762L1054.14 615.436L1054.47 616.172L1053.79 615.728L1053.06 616.056L1053.5 615.383L1053.17 614.647L1053.85 615.091L1054.58 614.762Z" fill="white"/>
<path d="M1652.58 600.762L1652.14 601.436L1652.47 602.172L1651.79 601.728L1651.06 602.056L1651.5 601.383L1651.17 600.647L1651.85 601.091L1652.58 600.762Z" fill="white"/>
<path d="M1845.58 403.762L1845.14 404.436L1845.47 405.172L1844.79 404.728L1844.06 405.056L1844.5 404.383L1844.17 403.647L1844.85 404.091L1845.58 403.762Z" fill="white"/>
<path d="M2120.58 579.762L2120.14 580.436L2120.47 581.172L2119.79 580.728L2119.06 581.056L2119.5 580.383L2119.17 579.647L2119.85 580.091L2120.58 579.762Z" fill="white"/>
<path d="M1994.58 893.762L1994.14 894.436L1994.47 895.172L1993.79 894.728L1993.06 895.056L1993.5 894.383L1993.17 893.647L1993.85 894.091L1994.58 893.762Z" fill="white"/>
<path d="M2123.58 1093.76L2123.14 1094.44L2123.47 1095.17L2122.79 1094.73L2122.06 1095.06L2122.5 1094.38L2122.17 1093.65L2122.85 1094.09L2123.58 1093.76Z" fill="white"/>
<path d="M1814.58 1128.76L1814.14 1129.44L1814.47 1130.17L1813.79 1129.73L1813.06 1130.06L1813.5 1129.38L1813.17 1128.65L1813.85 1129.09L1814.58 1128.76Z" fill="white"/>
<path d="M1458.58 1090.76L1458.14 1091.44L1458.47 1092.17L1457.79 1091.73L1457.06 1092.06L1457.5 1091.38L1457.17 1090.65L1457.85 1091.09L1458.58 1090.76Z" fill="white"/>
<path d="M1634.58 711.762L1634.14 712.436L1634.47 713.172L1633.79 712.728L1633.06 713.056L1633.5 712.383L1633.17 711.647L1633.85 712.091L1634.58 711.762Z" fill="white"/>
<path d="M1362.58 632.762L1362.14 633.436L1362.47 634.172L1361.79 633.728L1361.06 634.056L1361.5 633.383L1361.17 632.647L1361.85 633.091L1362.58 632.762Z" fill="white"/>
<path d="M1153.58 1010.76L1153.14 1011.44L1153.47 1012.17L1152.79 1011.73L1152.06 1012.06L1152.5 1011.38L1152.17 1010.65L1152.85 1011.09L1153.58 1010.76Z" fill="white"/>
<path d="M910.582 896.762L910.138 897.436L910.466 898.172L909.793 897.728L909.057 898.056L909.5 897.383L909.172 896.647L909.845 897.091L910.582 896.762Z" fill="white"/>
<path d="M913.582 549.762L913.138 550.436L913.466 551.172L912.793 550.728L912.057 551.056L912.5 550.383L912.172 549.647L912.845 550.091L913.582 549.762Z" fill="white"/>
<path d="M1235.58 582.762L1235.14 583.436L1235.47 584.172L1234.79 583.728L1234.06 584.056L1234.5 583.383L1234.17 582.647L1234.85 583.091L1235.58 582.762Z" fill="white"/>
<path d="M1802.58 585.762L1802.14 586.436L1802.47 587.172L1801.79 586.728L1801.06 587.056L1801.5 586.383L1801.17 585.647L1801.85 586.091L1802.58 585.762Z" fill="white"/>
<path d="M1693.58 820.762L1693.14 821.436L1693.47 822.172L1692.79 821.728L1692.06 822.056L1692.5 821.383L1692.17 820.647L1692.85 821.091L1693.58 820.762Z" fill="white"/>
<path d="M1560.58 943.762L1560.14 944.436L1560.47 945.172L1559.79 944.728L1559.06 945.056L1559.5 944.383L1559.17 943.647L1559.85 944.091L1560.58 943.762Z" fill="white"/>
<path d="M1376.58 665.762L1376.14 666.436L1376.47 667.172L1375.79 666.728L1375.06 667.056L1375.5 666.383L1375.17 665.647L1375.85 666.091L1376.58 665.762Z" fill="white"/>
<path d="M1593.58 484.762L1593.14 485.436L1593.47 486.172L1592.79 485.728L1592.06 486.056L1592.5 485.383L1592.17 484.647L1592.85 485.091L1593.58 484.762Z" fill="white"/>
<path d="M948.582 999.762L948.138 1000.44L948.466 1001.17L947.793 1000.73L947.057 1001.06L947.5 1000.38L947.172 999.647L947.845 1000.09L948.582 999.762Z" fill="white"/>
<path d="M924.582 697.762L924.138 698.436L924.466 699.172L923.793 698.728L923.057 699.056L923.5 698.383L923.172 697.647L923.845 698.091L924.582 697.762Z" fill="white"/>
<path d="M1475.58 686.762L1475.14 687.436L1475.47 688.172L1474.79 687.728L1474.06 688.056L1474.5 687.383L1474.17 686.647L1474.85 687.091L1475.58 686.762Z" fill="white"/>
<path d="M1696.58 1111.76L1696.14 1112.44L1696.47 1113.17L1695.79 1112.73L1695.06 1113.06L1695.5 1112.38L1695.17 1111.65L1695.85 1112.09L1696.58 1111.76Z" fill="white"/>
<path d="M1318.58 1199.76L1318.14 1200.44L1318.47 1201.17L1317.79 1200.73L1317.06 1201.06L1317.5 1200.38L1317.17 1199.65L1317.85 1200.09L1318.58 1199.76Z" fill="white"/>
<path d="M1315.58 830.762L1315.14 831.436L1315.47 832.172L1314.79 831.728L1314.06 832.056L1314.5 831.383L1314.17 830.647L1314.85 831.091L1315.58 830.762Z" fill="white"/>
<path d="M2091.58 377.762L2091.14 378.436L2091.47 379.172L2090.79 378.728L2090.06 379.056L2090.5 378.383L2090.17 377.647L2090.85 378.091L2091.58 377.762Z" fill="white"/>
<path d="M2176.58 335.762L2176.14 336.436L2176.47 337.172L2175.79 336.728L2175.06 337.056L2175.5 336.383L2175.17 335.647L2175.85 336.091L2176.58 335.762Z" fill="white"/>
<path d="M2187.58 1125.76L2187.14 1126.44L2187.47 1127.17L2186.79 1126.73L2186.06 1127.06L2186.5 1126.38L2186.17 1125.65L2186.85 1126.09L2187.58 1125.76Z" fill="white"/>
<path d="M1981.58 1246.76L1981.14 1247.44L1981.47 1248.17L1980.79 1247.73L1980.06 1248.06L1980.5 1247.38L1980.17 1246.65L1980.85 1247.09L1981.58 1246.76Z" fill="white"/>
<path d="M1846.58 815.762L1846.14 816.436L1846.47 817.172L1845.79 816.728L1845.06 817.056L1845.5 816.383L1845.17 815.647L1845.85 816.091L1846.58 815.762Z" fill="white"/>
<path d="M1422.23 899.525L1421.34 900.871L1422 902.344L1420.65 901.457L1419.18 902.113L1420.07 900.767L1419.41 899.294L1420.76 900.181L1422.23 899.525Z" fill="white"/>
<path d="M1174.75 729.525L1173.87 730.871L1174.52 732.344L1173.18 731.457L1171.7 732.113L1172.59 730.767L1171.93 729.294L1173.28 730.181L1174.75 729.525Z" fill="white"/>
<path d="M1772.75 441.525L1771.87 442.871L1772.52 444.344L1771.18 443.457L1769.7 444.113L1770.59 442.767L1769.93 441.294L1771.28 442.181L1772.75 441.525Z" fill="white"/>
<path d="M1539.75 315.525L1538.87 316.871L1539.52 318.344L1538.18 317.457L1536.7 318.113L1537.59 316.767L1536.93 315.294L1538.28 316.181L1539.75 315.525Z" fill="white"/>
<path d="M1321.75 318.525L1320.87 319.871L1321.52 321.344L1320.18 320.457L1318.7 321.113L1319.59 319.767L1318.93 318.294L1320.28 319.181L1321.75 318.525Z" fill="white"/>
<path d="M1949.75 286.525L1948.87 287.871L1949.52 289.344L1948.18 288.457L1946.7 289.113L1947.59 287.767L1946.93 286.294L1948.28 287.181L1949.75 286.525Z" fill="white"/>
<path d="M1747.75 902.525L1746.87 903.871L1747.52 905.344L1746.18 904.457L1744.7 905.113L1745.59 903.767L1744.93 902.294L1746.28 903.181L1747.75 902.525Z" fill="white"/>
<path d="M1049.75 878.525L1048.87 879.871L1049.52 881.344L1048.18 880.457L1046.7 881.113L1047.59 879.767L1046.93 878.294L1048.28 879.181L1049.75 878.525Z" fill="white"/>
<path d="M1016.75 1194.52L1015.87 1195.87L1016.52 1197.34L1015.18 1196.46L1013.7 1197.11L1014.59 1195.77L1013.93 1194.29L1015.28 1195.18L1016.75 1194.52Z" fill="white"/>
<path d="M906.753 819.525L905.866 820.871L906.523 822.344L905.176 821.457L903.704 822.113L904.591 820.767L903.935 819.294L905.281 820.181L906.753 819.525Z" fill="white"/>
<path d="M895.753 1132.52L894.866 1133.87L895.523 1135.34L894.176 1134.46L892.704 1135.11L893.591 1133.77L892.935 1132.29L894.281 1133.18L895.753 1132.52Z" fill="white"/>
<path d="M857.753 586.525L856.866 587.871L857.523 589.344L856.176 588.457L854.704 589.113L855.591 587.767L854.935 586.294L856.281 587.181L857.753 586.525Z" fill="white"/>
<path d="M1387.12 2.36727L1386.33 2.52961L1386.04 3.28227L1385.88 2.49266L1385.12 2.20396L1385.91 2.04162L1386.2 1.28895L1386.36 2.07857L1387.12 2.36727Z" fill="white"/>
<path d="M1481.87 178.309L1481.08 178.471L1480.79 179.224L1480.63 178.434L1479.88 178.145L1480.67 177.983L1480.95 177.23L1481.12 178.02L1481.87 178.309Z" fill="white"/>
<path d="M1352.47 142.246L1351.68 142.409L1351.39 143.161L1351.23 142.372L1350.48 142.083L1351.27 141.921L1351.55 141.168L1351.72 141.958L1352.47 142.246Z" fill="white"/>
<path d="M1439.44 80.7281L1438.65 80.8904L1438.36 81.6431L1438.2 80.8535L1437.45 80.5648L1438.24 80.4025L1438.53 79.6498L1438.69 80.4394L1439.44 80.7281Z" fill="white"/>
<path d="M1382.87 59.5147L1382.09 59.6771L1381.8 60.4297L1381.63 59.6401L1380.88 59.3514L1381.67 59.1891L1381.96 58.4364L1382.12 59.226L1382.87 59.5147Z" fill="white"/>
<path d="M1584.4 350.136L1583.61 350.298L1583.32 351.051L1583.16 350.261L1582.41 349.973L1583.2 349.81L1583.49 349.058L1583.65 349.847L1584.4 350.136Z" fill="white"/>
<path d="M1534.2 152.853L1533.41 153.015L1533.12 153.768L1532.96 152.978L1532.2 152.69L1532.99 152.527L1533.28 151.775L1533.44 152.564L1534.2 152.853Z" fill="white"/>
<path d="M1793 493.678L1792.21 493.841L1791.92 494.593L1791.76 493.804L1791 493.515L1791.79 493.353L1792.08 492.6L1792.24 493.39L1793 493.678Z" fill="white"/>
<path d="M1512.98 445.595L1512.19 445.757L1511.9 446.51L1511.74 445.72L1510.99 445.432L1511.78 445.269L1512.07 444.517L1512.23 445.306L1512.98 445.595Z" fill="white"/>
<path d="M1432.37 253.262L1431.58 253.424L1431.29 254.177L1431.13 253.387L1430.38 253.099L1431.17 252.936L1431.46 252.184L1431.62 252.973L1432.37 253.262Z" fill="white"/>
<path d="M1317.11 357.207L1316.32 357.369L1316.04 358.122L1315.87 357.332L1315.12 357.044L1315.91 356.881L1316.2 356.129L1316.36 356.918L1317.11 357.207Z" fill="white"/>
<path d="M1749.86 770.157L1749.07 770.319L1748.78 771.072L1748.62 770.282L1747.87 769.994L1748.66 769.831L1748.95 769.079L1749.11 769.868L1749.86 770.157Z" fill="white"/>
<path d="M2025.63 767.329L2024.85 767.491L2024.56 768.244L2024.39 767.454L2023.64 767.165L2024.43 767.003L2024.72 766.25L2024.88 767.04L2025.63 767.329Z" fill="white"/>
<path d="M2095.64 1086.23L2094.85 1086.4L2094.56 1087.15L2094.4 1086.36L2093.65 1086.07L2094.43 1085.91L2094.72 1085.16L2094.89 1085.95L2095.64 1086.23Z" fill="white"/>
<path d="M1784.51 1219.17L1783.72 1219.33L1783.43 1220.09L1783.27 1219.3L1782.52 1219.01L1783.31 1218.84L1783.6 1218.09L1783.76 1218.88L1784.51 1219.17Z" fill="white"/>
<path d="M1734.31 1451.81L1733.52 1451.97L1733.23 1452.72L1733.07 1451.93L1732.31 1451.64L1733.1 1451.48L1733.39 1450.73L1733.55 1451.52L1734.31 1451.81Z" fill="white"/>
<path d="M1491.06 1258.06L1490.27 1258.22L1489.98 1258.98L1489.82 1258.19L1489.07 1257.9L1489.86 1257.74L1490.15 1256.98L1490.31 1257.77L1491.06 1258.06Z" fill="white"/>
<path d="M1266.2 979.461L1265.41 979.623L1265.12 980.376L1264.96 979.586L1264.21 979.297L1265 979.135L1265.29 978.382L1265.45 979.172L1266.2 979.461Z" fill="white"/>
<path d="M1658.65 835.918L1657.86 836.08L1657.57 836.833L1657.41 836.043L1656.65 835.755L1657.44 835.592L1657.73 834.84L1657.89 835.629L1658.65 835.918Z" fill="white"/>
<path d="M1522.17 587.724L1521.39 587.886L1521.1 588.639L1520.93 587.849L1520.18 587.56L1520.97 587.398L1521.26 586.645L1521.42 587.435L1522.17 587.724Z" fill="white"/>
<path d="M1107.1 707.225L1106.31 707.387L1106.03 708.14L1105.86 707.35L1105.11 707.061L1105.9 706.899L1106.19 706.146L1106.35 706.936L1107.1 707.225Z" fill="white"/>
<path d="M1015.89 454.787L1015.1 454.95L1014.81 455.702L1014.65 454.913L1013.89 454.624L1014.68 454.462L1014.97 453.709L1015.13 454.499L1015.89 454.787Z" fill="white"/>
<path d="M1263.37 211.543L1262.58 211.705L1262.3 212.458L1262.13 211.668L1261.38 211.379L1262.17 211.217L1262.46 210.464L1262.62 211.254L1263.37 211.543Z" fill="white"/>
<path d="M1467.73 462.566L1466.94 462.728L1466.65 463.481L1466.49 462.691L1465.73 462.402L1466.52 462.24L1466.81 461.487L1466.98 462.277L1467.73 462.566Z" fill="white"/>
<path d="M1866.54 865.617L1865.75 865.779L1865.46 866.532L1865.3 865.742L1864.54 865.453L1865.33 865.291L1865.62 864.538L1865.78 865.328L1866.54 865.617Z" fill="white"/>
<path d="M1623.29 954.712L1622.5 954.874L1622.21 955.627L1622.05 954.837L1621.3 954.549L1622.09 954.386L1622.38 953.634L1622.54 954.423L1623.29 954.712Z" fill="white"/>
<path d="M1442.27 947.641L1441.48 947.803L1441.19 948.556L1441.03 947.766L1440.28 947.478L1441.07 947.315L1441.36 946.563L1441.52 947.352L1442.27 947.641Z" fill="white"/>
<path d="M1508.74 620.958L1507.95 621.12L1507.66 621.873L1507.5 621.083L1506.75 620.794L1507.54 620.632L1507.82 619.879L1507.99 620.669L1508.74 620.958Z" fill="white"/>
<path d="M1790.17 646.413L1789.38 646.576L1789.09 647.328L1788.93 646.539L1788.18 646.25L1788.96 646.088L1789.25 645.335L1789.42 646.125L1790.17 646.413Z" fill="white"/>
<path d="M969.925 554.49L969.135 554.652L968.846 555.405L968.684 554.615L967.931 554.326L968.721 554.164L969.01 553.411L969.172 554.201L969.925 554.49Z" fill="white"/>
<path d="M1166.5 323.973L1165.71 324.135L1165.42 324.888L1165.26 324.098L1164.51 323.809L1165.3 323.647L1165.59 322.894L1165.75 323.684L1166.5 323.973Z" fill="white"/>
<path d="M1563.89 705.81L1563.1 705.973L1562.82 706.725L1562.65 705.936L1561.9 705.647L1562.69 705.485L1562.98 704.732L1563.14 705.522L1563.89 705.81Z" fill="white"/>
<path d="M1419.64 1162.6L1418.85 1162.76L1418.57 1163.52L1418.4 1162.73L1417.65 1162.44L1418.44 1162.28L1418.73 1161.52L1418.89 1162.31L1419.64 1162.6Z" fill="white"/>
<path d="M1090.13 957.54L1089.34 957.703L1089.05 958.455L1088.89 957.666L1088.14 957.377L1088.93 957.215L1089.22 956.462L1089.38 957.252L1090.13 957.54Z" fill="white"/>
<path d="M1348.93 694.497L1348.14 694.659L1347.86 695.412L1347.69 694.622L1346.94 694.333L1347.73 694.171L1348.02 693.418L1348.18 694.208L1348.93 694.497Z" fill="white"/>
<path d="M2217.97 922.892L2217.18 923.055L2216.89 923.807L2216.73 923.018L2215.97 922.729L2216.76 922.567L2217.05 921.814L2217.22 922.603L2217.97 922.892Z" fill="white"/>
<path d="M2307.77 953.298L2306.98 953.46L2306.69 954.213L2306.53 953.423L2305.78 953.134L2306.57 952.972L2306.86 952.219L2307.02 953.009L2307.77 953.298Z" fill="white"/>
<path d="M1756.93 1519.69L1756.14 1519.85L1755.86 1520.61L1755.69 1519.82L1754.94 1519.53L1755.73 1519.36L1756.02 1518.61L1756.18 1519.4L1756.93 1519.69Z" fill="white"/>
<path d="M1525.71 1459.59L1524.92 1459.75L1524.63 1460.5L1524.47 1459.71L1523.72 1459.42L1524.51 1459.26L1524.8 1458.51L1524.96 1459.3L1525.71 1459.59Z" fill="white"/>
<path d="M1735.01 1059.36L1734.22 1059.53L1733.94 1060.28L1733.77 1059.49L1733.02 1059.2L1733.81 1059.04L1734.1 1058.29L1734.26 1059.08L1735.01 1059.36Z" fill="white"/>
<path d="M1375.72 818.53L1374.14 818.855L1373.57 820.36L1373.24 818.781L1371.74 818.203L1373.31 817.879L1373.89 816.373L1374.22 817.953L1375.72 818.53Z" fill="white"/>
<path d="M1320.94 523.33L1319.36 523.655L1318.78 525.16L1318.46 523.581L1316.95 523.004L1318.53 522.679L1319.11 521.174L1319.43 522.753L1320.94 523.33Z" fill="white"/>
<path d="M1947.44 742.534L1945.86 742.858L1945.28 744.364L1944.95 742.784L1943.45 742.207L1945.03 741.882L1945.61 740.377L1945.93 741.956L1947.44 742.534Z" fill="white"/>
<path d="M1871.78 488.682L1870.2 489.007L1869.62 490.512L1869.29 488.933L1867.79 488.356L1869.37 488.031L1869.95 486.526L1870.27 488.105L1871.78 488.682Z" fill="white"/>
<path d="M1715.5 336.654L1713.93 336.979L1713.35 338.484L1713.02 336.905L1711.52 336.328L1713.1 336.003L1713.67 334.498L1714 336.077L1715.5 336.654Z" fill="white"/>
<path d="M2182.2 758.09L2180.62 758.415L2180.04 759.92L2179.71 758.341L2178.21 757.763L2179.79 757.439L2180.37 755.933L2180.69 757.513L2182.2 758.09Z" fill="white"/>
<path d="M1603.78 1050.83L1602.2 1051.16L1601.62 1052.66L1601.3 1051.08L1599.79 1050.51L1601.37 1050.18L1601.95 1048.68L1602.28 1050.25L1603.78 1050.83Z" fill="white"/>
<path d="M1127.19 540.301L1125.61 540.626L1125.04 542.131L1124.71 540.552L1123.21 539.975L1124.78 539.65L1125.36 538.145L1125.69 539.724L1127.19 540.301Z" fill="white"/>
<path d="M880.411 740.412L878.832 740.737L878.255 742.242L877.93 740.663L876.425 740.086L878.004 739.761L878.581 738.256L878.906 739.835L880.411 740.412Z" fill="white"/>
<path d="M1067.79 397.465L1066.22 397.79L1065.64 399.296L1065.31 397.716L1063.81 397.139L1065.39 396.814L1065.96 395.309L1066.29 396.888L1067.79 397.465Z" fill="white"/>
<path d="M838.692 611.012L837.113 611.337L836.536 612.842L836.211 611.263L834.706 610.685L836.285 610.361L836.862 608.855L837.187 610.434L838.692 611.012Z" fill="white"/>
<path d="M1197.9 198.061L1196.32 198.386L1195.75 199.891L1195.42 198.312L1193.92 197.735L1195.5 197.41L1196.07 195.905L1196.4 197.484L1197.9 198.061Z" fill="white"/>
<path d="M110.172 600.353L109.728 601.026L110.056 601.763L109.383 601.319L108.647 601.647L109.09 600.974L108.762 600.238L109.436 600.681L110.172 600.353Z" fill="white"/>
<path d="M301.582 657.762L301.138 658.436L301.466 659.172L300.793 658.728L300.057 659.056L300.5 658.383L300.172 657.647L300.845 658.091L301.582 657.762Z" fill="white"/>
<path d="M184.582 723.762L184.138 724.436L184.466 725.172L183.793 724.728L183.057 725.056L183.5 724.383L183.172 723.647L183.845 724.091L184.582 723.762Z" fill="white"/>
<path d="M202.582 618.762L202.138 619.436L202.466 620.172L201.793 619.728L201.057 620.056L201.5 619.383L201.172 618.647L201.845 619.091L202.582 618.762Z" fill="white"/>
<path d="M147.582 643.762L147.138 644.436L147.466 645.172L146.793 644.728L146.057 645.056L146.5 644.383L146.172 643.647L146.845 644.091L147.582 643.762Z" fill="white"/>
<path d="M495.582 706.762L495.138 707.436L495.466 708.172L494.793 707.728L494.057 708.056L494.5 707.383L494.172 706.647L494.845 707.091L495.582 706.762Z" fill="white"/>
<path d="M320.582 602.762L320.138 603.436L320.466 604.172L319.793 603.728L319.057 604.056L319.5 603.383L319.172 602.647L319.845 603.091L320.582 602.762Z" fill="white"/>
<path d="M744.582 660.762L744.138 661.436L744.466 662.172L743.793 661.728L743.057 662.056L743.5 661.383L743.172 660.647L743.845 661.091L744.582 660.762Z" fill="white"/>
<path d="M512.582 824.762L512.138 825.436L512.466 826.172L511.793 825.728L511.057 826.056L511.5 825.383L511.172 824.647L511.845 825.091L512.582 824.762Z" fill="white"/>
<path d="M319.582 745.762L319.138 746.436L319.466 747.172L318.793 746.728L318.057 747.056L318.5 746.383L318.172 745.647L318.845 746.091L319.582 745.762Z" fill="white"/>
<path d="M311.582 900.762L311.138 901.436L311.466 902.172L310.793 901.728L310.057 902.056L310.5 901.383L310.172 900.647L310.845 901.091L311.582 900.762Z" fill="white"/>
<path d="M909.582 886.762L909.138 887.436L909.466 888.172L908.793 887.728L908.057 888.056L908.5 887.383L908.172 886.647L908.845 887.091L909.582 886.762Z" fill="white"/>
<path d="M1102.58 689.762L1102.14 690.436L1102.47 691.172L1101.79 690.728L1101.06 691.056L1101.5 690.383L1101.17 689.647L1101.85 690.091L1102.58 689.762Z" fill="white"/>
<path d="M1377.58 865.762L1377.14 866.436L1377.47 867.172L1376.79 866.728L1376.06 867.056L1376.5 866.383L1376.17 865.647L1376.85 866.091L1377.58 865.762Z" fill="white"/>
<path d="M1251.58 1179.76L1251.14 1180.44L1251.47 1181.17L1250.79 1180.73L1250.06 1181.06L1250.5 1180.38L1250.17 1179.65L1250.85 1180.09L1251.58 1179.76Z" fill="white"/>
<path d="M1380.58 1379.76L1380.14 1380.44L1380.47 1381.17L1379.79 1380.73L1379.06 1381.06L1379.5 1380.38L1379.17 1379.65L1379.85 1380.09L1380.58 1379.76Z" fill="white"/>
<path d="M1071.58 1414.76L1071.14 1415.44L1071.47 1416.17L1070.79 1415.73L1070.06 1416.06L1070.5 1415.38L1070.17 1414.65L1070.85 1415.09L1071.58 1414.76Z" fill="white"/>
<path d="M715.582 1376.76L715.138 1377.44L715.466 1378.17L714.793 1377.73L714.057 1378.06L714.5 1377.38L714.172 1376.65L714.845 1377.09L715.582 1376.76Z" fill="white"/>
<path d="M891.582 997.762L891.138 998.436L891.466 999.172L890.793 998.728L890.057 999.056L890.5 998.383L890.172 997.647L890.845 998.091L891.582 997.762Z" fill="white"/>
<path d="M619.582 918.762L619.138 919.436L619.466 920.172L618.793 919.728L618.057 920.056L618.5 919.383L618.172 918.647L618.845 919.091L619.582 918.762Z" fill="white"/>
<path d="M410.582 1296.76L410.138 1297.44L410.466 1298.17L409.793 1297.73L409.057 1298.06L409.5 1297.38L409.172 1296.65L409.845 1297.09L410.582 1296.76Z" fill="white"/>
<path d="M167.582 1182.76L167.138 1183.44L167.466 1184.17L166.793 1183.73L166.057 1184.06L166.5 1183.38L166.172 1182.65L166.845 1183.09L167.582 1182.76Z" fill="white"/>
<path d="M170.582 835.762L170.138 836.436L170.466 837.172L169.793 836.728L169.057 837.056L169.5 836.383L169.172 835.647L169.845 836.091L170.582 835.762Z" fill="white"/>
<path d="M492.582 868.762L492.138 869.436L492.466 870.172L491.793 869.728L491.057 870.056L491.5 869.383L491.172 868.647L491.845 869.091L492.582 868.762Z" fill="white"/>
<path d="M1059.58 871.762L1059.14 872.436L1059.47 873.172L1058.79 872.728L1058.06 873.056L1058.5 872.383L1058.17 871.647L1058.85 872.091L1059.58 871.762Z" fill="white"/>
<path d="M950.582 1106.76L950.138 1107.44L950.466 1108.17L949.793 1107.73L949.057 1108.06L949.5 1107.38L949.172 1106.65L949.845 1107.09L950.582 1106.76Z" fill="white"/>
<path d="M817.582 1229.76L817.138 1230.44L817.466 1231.17L816.793 1230.73L816.057 1231.06L816.5 1230.38L816.172 1229.65L816.845 1230.09L817.582 1229.76Z" fill="white"/>
<path d="M633.582 951.762L633.138 952.436L633.466 953.172L632.793 952.728L632.057 953.056L632.5 952.383L632.172 951.647L632.845 952.091L633.582 951.762Z" fill="white"/>
<path d="M850.582 770.762L850.138 771.436L850.466 772.172L849.793 771.728L849.057 772.056L849.5 771.383L849.172 770.647L849.845 771.091L850.582 770.762Z" fill="white"/>
<path d="M205.582 1285.76L205.138 1286.44L205.466 1287.17L204.793 1286.73L204.057 1287.06L204.5 1286.38L204.172 1285.65L204.845 1286.09L205.582 1285.76Z" fill="white"/>
<path d="M181.582 983.762L181.138 984.436L181.466 985.172L180.793 984.728L180.057 985.056L180.5 984.383L180.172 983.647L180.845 984.091L181.582 983.762Z" fill="white"/>
<path d="M732.582 972.762L732.138 973.436L732.466 974.172L731.793 973.728L731.057 974.056L731.5 973.383L731.172 972.647L731.845 973.091L732.582 972.762Z" fill="white"/>
<path d="M953.582 1397.76L953.138 1398.44L953.466 1399.17L952.793 1398.73L952.057 1399.06L952.5 1398.38L952.172 1397.65L952.845 1398.09L953.582 1397.76Z" fill="white"/>
<path d="M575.582 1485.76L575.138 1486.44L575.466 1487.17L574.793 1486.73L574.057 1487.06L574.5 1486.38L574.172 1485.65L574.845 1486.09L575.582 1485.76Z" fill="white"/>
<path d="M572.582 1116.76L572.138 1117.44L572.466 1118.17L571.793 1117.73L571.057 1118.06L571.5 1117.38L571.172 1116.65L571.845 1117.09L572.582 1116.76Z" fill="white"/>
<path d="M1348.58 663.762L1348.14 664.436L1348.47 665.172L1347.79 664.728L1347.06 665.056L1347.5 664.383L1347.17 663.647L1347.85 664.091L1348.58 663.762Z" fill="white"/>
<path d="M1433.58 621.762L1433.14 622.436L1433.47 623.172L1432.79 622.728L1432.06 623.056L1432.5 622.383L1432.17 621.647L1432.85 622.091L1433.58 621.762Z" fill="white"/>
<path d="M1444.58 1411.76L1444.14 1412.44L1444.47 1413.17L1443.79 1412.73L1443.06 1413.06L1443.5 1412.38L1443.17 1411.65L1443.85 1412.09L1444.58 1411.76Z" fill="white"/>
<path d="M1238.58 1532.76L1238.14 1533.44L1238.47 1534.17L1237.79 1533.73L1237.06 1534.06L1237.5 1533.38L1237.17 1532.65L1237.85 1533.09L1238.58 1532.76Z" fill="white"/>
<path d="M1103.58 1101.76L1103.14 1102.44L1103.47 1103.17L1102.79 1102.73L1102.06 1103.06L1102.5 1102.38L1102.17 1101.65L1102.85 1102.09L1103.58 1101.76Z" fill="white"/>
<path d="M679.229 1185.52L678.341 1186.87L678.998 1188.34L677.651 1187.46L676.179 1188.11L677.066 1186.77L676.41 1185.29L677.756 1186.18L679.229 1185.52Z" fill="white"/>
<path d="M431.753 1015.52L430.866 1016.87L431.523 1018.34L430.176 1017.46L428.704 1018.11L429.591 1016.77L428.935 1015.29L430.281 1016.18L431.753 1015.52Z" fill="white"/>
<path d="M1029.75 727.525L1028.87 728.871L1029.52 730.344L1028.18 729.457L1026.7 730.113L1027.59 728.767L1026.93 727.294L1028.28 728.181L1029.75 727.525Z" fill="white"/>
<path d="M796.753 601.525L795.866 602.871L796.523 604.344L795.176 603.457L793.704 604.113L794.591 602.767L793.935 601.294L795.281 602.181L796.753 601.525Z" fill="white"/>
<path d="M578.753 604.525L577.866 605.871L578.523 607.344L577.176 606.457L575.704 607.113L576.591 605.767L575.935 604.294L577.281 605.181L578.753 604.525Z" fill="white"/>
<path d="M1206.75 572.525L1205.87 573.871L1206.52 575.344L1205.18 574.457L1203.7 575.113L1204.59 573.767L1203.93 572.294L1205.28 573.181L1206.75 572.525Z" fill="white"/>
<path d="M1004.75 1188.52L1003.87 1189.87L1004.52 1191.34L1003.18 1190.46L1001.7 1191.11L1002.59 1189.77L1001.93 1188.29L1003.28 1189.18L1004.75 1188.52Z" fill="white"/>
<path d="M306.753 1164.52L305.866 1165.87L306.523 1167.34L305.176 1166.46L303.704 1167.11L304.591 1165.77L303.935 1164.29L305.281 1165.18L306.753 1164.52Z" fill="white"/>
<path d="M273.753 1480.52L272.866 1481.87L273.523 1483.34L272.176 1482.46L270.704 1483.11L271.591 1481.77L270.935 1480.29L272.281 1481.18L273.753 1480.52Z" fill="white"/>
<path d="M163.753 1105.52L162.866 1106.87L163.523 1108.34L162.176 1107.46L160.704 1108.11L161.591 1106.77L160.935 1105.29L162.281 1106.18L163.753 1105.52Z" fill="white"/>
<path d="M152.753 1418.52L151.866 1419.87L152.523 1421.34L151.176 1420.46L149.704 1421.11L150.591 1419.77L149.935 1418.29L151.281 1419.18L152.753 1418.52Z" fill="white"/>
<path d="M114.753 872.525L113.866 873.871L114.523 875.344L113.176 874.457L111.704 875.113L112.591 873.767L111.935 872.294L113.281 873.181L114.753 872.525Z" fill="white"/>
</svg>
